<?xml version="1.0" encoding="UTF-8" standalone="no"?>
<svg
   xmlns:dc="http://purl.org/dc/elements/1.1/"
   xmlns:cc="http://creativecommons.org/ns#"
   xmlns:rdf="http://www.w3.org/1999/02/22-rdf-syntax-ns#"
   xmlns:svg="http://www.w3.org/2000/svg"
   xmlns="http://www.w3.org/2000/svg"
   xmlns:sodipodi="http://sodipodi.sourceforge.net/DTD/sodipodi-0.dtd"
   xmlns:inkscape="http://www.inkscape.org/namespaces/inkscape"
   version="1.1"
   id="logo"
   x="0px"
   y="0px"
   width="200px"
   height="70px"
   viewBox="0 0 200 70"
   enable-background="new 0 0 200 70"
   xml:space="preserve"
   inkscape:version="0.91 r13725"
   sodipodi:docname="logo.svg"><metadata
     id="metadata16"><rdf:RDF><cc:Work
         rdf:about=""><dc:format>image/svg+xml</dc:format><dc:type
           rdf:resource="http://purl.org/dc/dcmitype/StillImage" /></cc:Work></rdf:RDF></metadata><defs
     id="defs14" /><sodipodi:namedview
     pagecolor="#ffffff"
     bordercolor="#666666"
     borderopacity="1"
     objecttolerance="10"
     gridtolerance="10"
     guidetolerance="10"
     inkscape:pageopacity="0"
     inkscape:pageshadow="2"
     inkscape:window-width="1280"
     inkscape:window-height="751"
     id="namedview12"
     showgrid="false"
     showguides="false"
     inkscape:snap-text-baseline="true"
     inkscape:zoom="3.18"
     inkscape:cx="144.89319"
     inkscape:cy="4.4540413"
     inkscape:window-x="0"
     inkscape:window-y="25"
     inkscape:window-maximized="1"
     inkscape:current-layer="logo" /><ellipse
     cx="-39.216679"
     cy="13.647463"
     id="circle8"
     style="clip-rule:evenodd;fill:#7569ae;fill-rule:evenodd;fill-opacity:0"
     rx="9.2445669"
     ry="8.9602222"
     transform="matrix(-0.99992355,-0.01236481,-0.05250168,0.99862084,0,0)"
     inkscape:transform-center-x="4.4025157"
     inkscape:transform-center-y="-1.8867925" /><path
     d="m 50.878726,13.180066 c -3.305617,6.080141 -1.519811,13.90581 -3.759741,18.025797 -2.990894,5.501253 -7.359145,5.714229 -10.442049,0.38682 -3.082904,-5.327411 -1.49926,-13.567797 -4.93149,-19.49886 -2.775275,-4.7958117 -8.045832,-5.1543294 -11.071086,0.410124 -3.025254,5.564453 -2.808313,14.688605 0.115436,19.74099 4.110537,7.103214 6.985324,1.285851 11.031793,8.278351 3.972233,6.864218 1.256091,12.955729 4.731035,18.9606 2.98731,5.162219 8.151901,4.959233 11.071085,-0.410121 3.438083,-6.323789 1.034544,-12.106275 4.707175,-18.861479 3.672635,-6.755201 5.910345,-0.667693 9.734365,-7.701354 C 65.026263,27.06464 65.038311,18.107023 61.949814,12.769943 58.860299,7.431109 53.64453,8.0928269 50.878726,13.180066 Z"
     id="path10"
     inkscape:connector-curvature="0"
     style="clip-rule:evenodd;fill:#444444;fill-rule:evenodd" /><text
     xml:space="preserve"
     style="font-style:normal;font-variant:normal;font-weight:normal;font-stretch:normal;font-size:65.09805298px;line-height:129.99999523%;font-family:'WenQuanYi Micro Hei';-inkscape-font-specification:'WenQuanYi Micro Hei, Normal';text-align:start;letter-spacing:0px;word-spacing:0px;writing-mode:lr-tb;text-anchor:start;fill:#09000a;fill-opacity:0.7677419;stroke:none;stroke-width:0.90865821;stroke-linecap:round;stroke-linejoin:miter;stroke-miterlimit:4;stroke-dasharray:none;stroke-opacity:1"
     x="69.499962"
     y="58.877163"
     id="text3358"
     sodipodi:linespacing="130%"
     transform="scale(0.96860782,1.0324096)"><tspan
       sodipodi:role="line"
       id="tspan4658"
       x="69.499962"
       y="58.877163"
       style="fill:#09000a;fill-opacity:0.7677419;stroke:none;stroke-width:0.90865821">oice</tspan></text>
</svg>